<?xml version="1.0" encoding="UTF-8"?>
<svg version="1.1" xmlns="http://www.w3.org/2000/svg" width="200" height="200">
<path d="M0 0 C66 0 132 0 200 0 C200 66 200 132 200 200 C134 200 68 200 0 200 C0 134 0 68 0 0 Z " fill="#1D242C" transform="translate(0,0)"/>
<path d="M0 0 C4.85245182 2.20001472 7.78851734 5.17784592 10.26171875 9.78125 C13.12275617 14.73233098 17.45565418 16.98858188 22.19921875 19.9765625 C26.33463716 22.78116807 29.22478765 25.94145197 32.13671875 29.96875 C32.66910156 30.68289062 33.20148438 31.39703125 33.75 32.1328125 C41.24328533 43.25188105 43.7231811 57.79970856 42.13671875 70.96875 C39.30746216 83.19843977 32.29373628 95.27843673 22.13671875 102.96875 C19.93359375 103.6484375 19.93359375 103.6484375 18.13671875 103.96875 C18.13671875 104.62875 18.13671875 105.28875 18.13671875 105.96875 C9.49524828 110.38673651 1.94694059 112.68331837 -7.73193359 113.38623047 C-12.79966697 113.75665577 -16.58750743 114.58949314 -20.92578125 117.21875 C-22.86328125 117.96875 -22.86328125 117.96875 -25.05078125 117.28125 C-26.86328125 115.96875 -26.86328125 115.96875 -27.86328125 112.96875 C-29.84328125 113.95875 -29.84328125 113.95875 -31.86328125 114.96875 C-32.52328125 114.30875 -33.18328125 113.64875 -33.86328125 112.96875 C-33.53328125 112.63875 -33.20328125 112.30875 -32.86328125 111.96875 C-34.24903102 107.1439749 -36.52878507 105.43512986 -40.61328125 102.65625 C-45.79305505 98.96791366 -49.45959606 95.32568635 -52.86328125 89.96875 C-53.48203125 89.08960938 -54.10078125 88.21046875 -54.73828125 87.3046875 C-58.50549614 81.79057861 -60.44445803 77.69306094 -60.86328125 70.96875 C-60.90767334 70.27023926 -60.95206543 69.57172852 -60.99780273 68.85205078 C-61.8567393 51.09530572 -57.72081453 38.79911399 -46.11328125 25.28125 C-42.15124906 20.99603089 -38.25921414 17.97087148 -33.08984375 15.28515625 C-29.34334747 13.07012249 -26.88000723 10.19353488 -24.61328125 6.53125 C-18.2482122 -2.52823478 -10.01517718 -3.67279842 0 0 Z " fill="#20262D" transform="translate(109.86328125,41.03125)"/>
<path d="M0 0 C4.85245182 2.20001472 7.78851734 5.17784592 10.26171875 9.78125 C13.12275617 14.73233098 17.45565418 16.98858188 22.19921875 19.9765625 C26.33463716 22.78116807 29.22478765 25.94145197 32.13671875 29.96875 C32.66910156 30.68289062 33.20148438 31.39703125 33.75 32.1328125 C41.24328533 43.25188105 43.7231811 57.79970856 42.13671875 70.96875 C39.30746216 83.19843977 32.29373628 95.27843673 22.13671875 102.96875 C19.93359375 103.6484375 19.93359375 103.6484375 18.13671875 103.96875 C18.13671875 104.62875 18.13671875 105.28875 18.13671875 105.96875 C8.75602611 110.76466682 0.53524505 112.83309791 -9.9296875 113.64453125 C-13.00837971 113.89828642 -15.86257399 114.27353664 -18.86328125 114.96875 C-14.86328125 110.96875 -14.86328125 110.96875 -12.73828125 109.21875 C-10.26331863 106.24879485 -10.44769657 104.52719755 -10.61328125 100.71875 C-10.66742188 99.10226563 -10.66742188 99.10226563 -10.72265625 97.453125 C-10.7690625 96.63328125 -10.81546875 95.8134375 -10.86328125 94.96875 C-7.86328125 95.96875 -7.86328125 95.96875 -6.86328125 97.96875 C-6.4854617 105.77702068 -6.4854617 105.77702068 -8.86328125 109.96875 C5.03078895 109.66246789 16.23728865 104.78822635 26.06640625 95.05859375 C33.15573773 87.40637544 37.50393804 79.21057365 38.41796875 68.75 C38.06518943 64.00707798 36.48066118 60.76906951 34.32421875 56.59375 C32.040526 52.03275039 29.9048459 47.76507491 28.69921875 42.78125 C27.62051471 39.03078894 25.98225295 38.01085387 22.63671875 36.09375 C19.76278736 34.42114042 18.40247982 33.61770145 17.12890625 30.5078125 C16.71232599 28.62529157 16.31562412 26.73827687 15.9375 24.84765625 C14.53471152 19.8044606 11.26987887 16.07427016 8.13671875 11.96875 C7.4180116 10.82939485 6.70771654 9.68461777 6.01171875 8.53125 C2.96752616 4.37085346 0.36300619 3.1898838 -4.67578125 2.28125 C-5.72765625 2.178125 -6.77953125 2.075 -7.86328125 1.96875 C-7.86328125 1.30875 -7.86328125 0.64875 -7.86328125 -0.03125 C-8.52328125 -0.03125 -9.18328125 -0.03125 -9.86328125 -0.03125 C-9.86328125 0.62875 -9.86328125 1.28875 -9.86328125 1.96875 C-10.85328125 1.63875 -11.84328125 1.30875 -12.86328125 0.96875 C-19.98293414 4.90189158 -25.01131941 10.78657874 -27.734375 18.40625 C-28.60617276 20.82403579 -29.38745808 22.86043118 -30.86328125 24.96875 C-33.10872374 25.90544531 -35.14951596 26.21508407 -37.5546875 26.55078125 C-41.51784613 27.26830743 -44.18512622 28.98702576 -46.86328125 31.96875 C-48.32792371 34.55442379 -49.47737922 37.15800902 -50.59765625 39.91015625 C-52.38163391 44.2214356 -54.56756924 48.30441466 -56.7265625 52.4375 C-58.06811232 54.96240677 -58.06811232 54.96240677 -57.86328125 57.96875 C-57.43917969 57.18113281 -57.01507813 56.39351562 -56.578125 55.58203125 C-55.67005269 53.89561124 -54.761741 52.20931268 -53.84814453 50.52587891 C-52.19587183 47.47546604 -50.57415167 44.41589166 -49.015625 41.31640625 C-48.42910156 40.17042969 -47.84257813 39.02445313 -47.23828125 37.84375 C-46.70976563 36.78929687 -46.18125 35.73484375 -45.63671875 34.6484375 C-43.24376696 31.03265572 -40.66113425 29.50324684 -36.55078125 28.28125 C-35.99390625 28.178125 -35.43703125 28.075 -34.86328125 27.96875 C-34.53328125 28.62875 -34.20328125 29.28875 -33.86328125 29.96875 C-33.53328125 29.63875 -33.20328125 29.30875 -32.86328125 28.96875 C-32.86328125 28.30875 -32.86328125 27.64875 -32.86328125 26.96875 C-32.01443359 26.76958984 -32.01443359 26.76958984 -31.1484375 26.56640625 C-30.41496094 26.38980469 -29.68148437 26.21320313 -28.92578125 26.03125 C-27.82943359 25.77021484 -27.82943359 25.77021484 -26.7109375 25.50390625 C-24.86358227 25.12987431 -24.86358227 25.12987431 -23.86328125 23.96875 C-19.87172244 24.3070177 -16.56260623 24.71185511 -12.80078125 26.09375 C-8.30950011 27.43157842 -4.58396913 26.68220595 -0.30078125 24.90625 C2.80362845 23.71224627 4.83526355 23.48728778 8.13671875 23.96875 C11.01171875 25.78125 11.01171875 25.78125 13.13671875 28.96875 C13.54783276 32.6739801 13.4291941 36.25756273 13.13671875 39.96875 C12.47671875 39.63875 11.81671875 39.30875 11.13671875 38.96875 C10.5356413 35.65148295 10.3923839 32.33500785 10.13671875 28.96875 C6.83671875 30.28875 3.53671875 31.60875 0.13671875 32.96875 C1.45671875 32.96875 2.77671875 32.96875 4.13671875 32.96875 C3.80671875 34.28875 3.47671875 35.60875 3.13671875 36.96875 C2.14671875 36.96875 1.15671875 36.96875 0.13671875 36.96875 C0.63171875 37.690625 1.12671875 38.4125 1.63671875 39.15625 C3.2159116 42.11723659 3.41850187 43.68128029 3.13671875 46.96875 C3.79671875 46.96875 4.45671875 46.96875 5.13671875 46.96875 C7.46262729 50.60298209 7.29937708 53.73963331 7.13671875 57.96875 C2.39864569 58.58011427 -2.08780556 59.00842158 -6.86328125 58.84375 C-11.96946988 58.7637157 -16.16535108 60.06234355 -20.86328125 61.96875 C-20.86328125 62.62875 -20.86328125 63.28875 -20.86328125 63.96875 C-20.20328125 63.96875 -19.54328125 63.96875 -18.86328125 63.96875 C-18.36828125 62.48375 -18.36828125 62.48375 -17.86328125 60.96875 C-16.87328125 61.95875 -15.88328125 62.94875 -14.86328125 63.96875 C-15.19328125 64.62875 -15.52328125 65.28875 -15.86328125 65.96875 C-16.52328125 65.96875 -17.18328125 65.96875 -17.86328125 65.96875 C-17.02994792 68.13541667 -17.02994792 68.13541667 -14.86328125 68.96875 C-14.73953125 69.566875 -14.61578125 70.165 -14.48828125 70.78125 C-13.66040678 73.67881065 -12.00506969 74.89186424 -9.86328125 76.96875 C-8.05424997 79.94163358 -7.61209799 82.13169639 -7.67578125 85.59375 C-7.68222656 86.36976562 -7.68867187 87.14578125 -7.6953125 87.9453125 C-7.86328125 89.96875 -7.86328125 89.96875 -8.86328125 91.96875 C-9.52328125 91.96875 -10.18328125 91.96875 -10.86328125 91.96875 C-11.52328125 90.64875 -12.18328125 89.32875 -12.86328125 87.96875 C-13.52328125 88.95875 -14.18328125 89.94875 -14.86328125 90.96875 C-15.85328125 89.64875 -16.84328125 88.32875 -17.86328125 86.96875 C-17.53328125 88.61875 -17.20328125 90.26875 -16.86328125 91.96875 C-18.88785505 90.03620228 -20.28433917 88.33716312 -21.86328125 85.96875 C-24.09564241 85.05025174 -24.09564241 85.05025174 -26.73828125 84.46875 C-27.71796875 84.21996094 -28.69765625 83.97117187 -29.70703125 83.71484375 C-31.82864643 83.21332333 -33.95379903 82.72655976 -36.08203125 82.25390625 C-46.66287213 79.83131273 -46.66287213 79.83131273 -49.86328125 75.96875 C-51.07083456 71.91482103 -50.74173395 69.03159376 -49.86328125 64.96875 C-50.19328125 63.97875 -50.52328125 62.98875 -50.86328125 61.96875 C-54.01176132 62.63320501 -54.01176132 62.63320501 -55.01953125 65.171875 C-56.72768934 70.83410275 -57.21364159 77.03770029 -54.6953125 82.50390625 C-53.18875469 84.76180651 -51.56572015 86.85608485 -49.86328125 88.96875 C-49.15435125 90.1350542 -48.44598728 91.3017027 -47.73828125 92.46875 C-44.5985492 96.8994903 -39.99404978 99.77470676 -35.60546875 102.85546875 C-33.1211754 104.77000251 -31.38695585 106.23836961 -29.86328125 108.96875 C-30.19328125 109.95875 -30.52328125 110.94875 -30.86328125 111.96875 C-31.40210937 111.23269531 -31.9409375 110.49664062 -32.49609375 109.73828125 C-35.0148483 106.79142155 -37.56251156 104.86635944 -40.73828125 102.65625 C-45.83885471 98.96307548 -49.49242963 95.27401079 -52.86328125 89.96875 C-53.48203125 89.08960938 -54.10078125 88.21046875 -54.73828125 87.3046875 C-58.50549614 81.79057861 -60.44445803 77.69306094 -60.86328125 70.96875 C-60.90767334 70.27023926 -60.95206543 69.57172852 -60.99780273 68.85205078 C-61.8567393 51.09530572 -57.72081453 38.79911399 -46.11328125 25.28125 C-42.15124906 20.99603089 -38.25921414 17.97087148 -33.08984375 15.28515625 C-29.34334747 13.07012249 -26.88000723 10.19353488 -24.61328125 6.53125 C-18.2482122 -2.52823478 -10.01517718 -3.67279842 0 0 Z " fill="#20262D" transform="translate(109.86328125,41.03125)"/>
<path d="M0 0 C4.85245182 2.20001472 7.78851734 5.17784592 10.26171875 9.78125 C13.12275617 14.73233098 17.45565418 16.98858188 22.19921875 19.9765625 C26.33463716 22.78116807 29.22478765 25.94145197 32.13671875 29.96875 C32.66910156 30.68289062 33.20148438 31.39703125 33.75 32.1328125 C41.24328533 43.25188105 43.7231811 57.79970856 42.13671875 70.96875 C39.30746216 83.19843977 32.29373628 95.27843673 22.13671875 102.96875 C19.93359375 103.6484375 19.93359375 103.6484375 18.13671875 103.96875 C18.13671875 104.62875 18.13671875 105.28875 18.13671875 105.96875 C8.75602611 110.76466682 0.53524505 112.83309791 -9.9296875 113.64453125 C-13.00837971 113.89828642 -15.86257399 114.27353664 -18.86328125 114.96875 C-14.86328125 110.96875 -14.86328125 110.96875 -12.73828125 109.21875 C-10.26331863 106.24879485 -10.44769657 104.52719755 -10.61328125 100.71875 C-10.66742188 99.10226563 -10.66742188 99.10226563 -10.72265625 97.453125 C-10.7690625 96.63328125 -10.81546875 95.8134375 -10.86328125 94.96875 C-7.86328125 95.96875 -7.86328125 95.96875 -6.86328125 97.96875 C-6.4854617 105.77702068 -6.4854617 105.77702068 -8.86328125 109.96875 C5.03078895 109.66246789 16.23728865 104.78822635 26.06640625 95.05859375 C33.15573773 87.40637544 37.50393804 79.21057365 38.41796875 68.75 C38.06518943 64.00707798 36.48066118 60.76906951 34.32421875 56.59375 C32.040526 52.03275039 29.9048459 47.76507491 28.69921875 42.78125 C27.62051471 39.03078894 25.98225295 38.01085387 22.63671875 36.09375 C19.76278736 34.42114042 18.40247982 33.61770145 17.12890625 30.5078125 C16.71232599 28.62529157 16.31562412 26.73827687 15.9375 24.84765625 C14.53471152 19.8044606 11.26987887 16.07427016 8.13671875 11.96875 C7.4180116 10.82939485 6.70771654 9.68461777 6.01171875 8.53125 C2.96752616 4.37085346 0.36300619 3.1898838 -4.67578125 2.28125 C-5.72765625 2.178125 -6.77953125 2.075 -7.86328125 1.96875 C-7.86328125 1.30875 -7.86328125 0.64875 -7.86328125 -0.03125 C-8.52328125 -0.03125 -9.18328125 -0.03125 -9.86328125 -0.03125 C-9.86328125 0.62875 -9.86328125 1.28875 -9.86328125 1.96875 C-10.85328125 1.63875 -11.84328125 1.30875 -12.86328125 0.96875 C-19.98293414 4.90189158 -25.01131941 10.78657874 -27.734375 18.40625 C-28.60617276 20.82403579 -29.38745808 22.86043118 -30.86328125 24.96875 C-33.10872374 25.90544531 -35.14951596 26.21508407 -37.5546875 26.55078125 C-41.51784613 27.26830743 -44.18512622 28.98702576 -46.86328125 31.96875 C-48.32792371 34.55442379 -49.47737922 37.15800902 -50.59765625 39.91015625 C-52.38163391 44.2214356 -54.56756924 48.30441466 -56.7265625 52.4375 C-58.06811232 54.96240677 -58.06811232 54.96240677 -57.86328125 57.96875 C-57.43917969 57.18113281 -57.01507813 56.39351562 -56.578125 55.58203125 C-55.67005269 53.89561124 -54.761741 52.20931268 -53.84814453 50.52587891 C-52.19587183 47.47546604 -50.57415167 44.41589166 -49.015625 41.31640625 C-48.42910156 40.17042969 -47.84257813 39.02445313 -47.23828125 37.84375 C-46.70976563 36.78929687 -46.18125 35.73484375 -45.63671875 34.6484375 C-43.67256938 31.68058184 -42.06115194 30.46936893 -38.86328125 28.96875 C-38.20328125 28.96875 -37.54328125 28.96875 -36.86328125 28.96875 C-38.47844667 33.22691339 -40.44289096 37.28016219 -42.48828125 41.34375 C-42.83511963 42.03621826 -43.18195801 42.72868652 -43.53930664 43.44213867 C-46.37604915 49.07416016 -49.32067838 54.6449932 -52.33642578 60.18310547 C-55.93714011 66.83353513 -56.85675303 72.44273263 -55.86328125 79.96875 C-54.30621203 83.37026699 -52.20068661 86.06811444 -49.86328125 88.96875 C-49.15435125 90.1350542 -48.44598728 91.3017027 -47.73828125 92.46875 C-44.5985492 96.8994903 -39.99404978 99.77470676 -35.60546875 102.85546875 C-33.1211754 104.77000251 -31.38695585 106.23836961 -29.86328125 108.96875 C-30.19328125 109.95875 -30.52328125 110.94875 -30.86328125 111.96875 C-31.40210937 111.23269531 -31.9409375 110.49664062 -32.49609375 109.73828125 C-35.0148483 106.79142155 -37.56251156 104.86635944 -40.73828125 102.65625 C-45.83885471 98.96307548 -49.49242963 95.27401079 -52.86328125 89.96875 C-53.48203125 89.08960938 -54.10078125 88.21046875 -54.73828125 87.3046875 C-58.50549614 81.79057861 -60.44445803 77.69306094 -60.86328125 70.96875 C-60.90767334 70.27023926 -60.95206543 69.57172852 -60.99780273 68.85205078 C-61.8567393 51.09530572 -57.72081453 38.79911399 -46.11328125 25.28125 C-42.15124906 20.99603089 -38.25921414 17.97087148 -33.08984375 15.28515625 C-29.34334747 13.07012249 -26.88000723 10.19353488 -24.61328125 6.53125 C-18.2482122 -2.52823478 -10.01517718 -3.67279842 0 0 Z " fill="#CCD0D4" transform="translate(109.86328125,41.03125)"/>
<path d="M0 0 C2.046875 0.4296875 2.046875 0.4296875 5.109375 1.5546875 C9.60065614 2.89251592 13.32618712 2.14314345 17.609375 0.3671875 C20.7137847 -0.82681623 22.7454198 -1.05177472 26.046875 -0.5703125 C28.921875 1.2421875 28.921875 1.2421875 31.046875 4.4296875 C31.45798901 8.1349176 31.33935035 11.71850023 31.046875 15.4296875 C30.386875 15.0996875 29.726875 14.7696875 29.046875 14.4296875 C28.44579755 11.11242045 28.30254015 7.79594535 28.046875 4.4296875 C24.746875 5.7496875 21.446875 7.0696875 18.046875 8.4296875 C19.366875 8.4296875 20.686875 8.4296875 22.046875 8.4296875 C21.716875 9.7496875 21.386875 11.0696875 21.046875 12.4296875 C20.056875 12.4296875 19.066875 12.4296875 18.046875 12.4296875 C18.541875 13.1515625 19.036875 13.8734375 19.546875 14.6171875 C21.12606785 17.57817409 21.32865812 19.14221779 21.046875 22.4296875 C21.706875 22.4296875 22.366875 22.4296875 23.046875 22.4296875 C25.37278354 26.06391959 25.20953333 29.20057081 25.046875 33.4296875 C24.38429687 33.26726562 23.72171875 33.10484375 23.0390625 32.9375 C19.40239826 32.32031155 15.84738778 32.28407715 12.171875 32.3046875 C11.14900391 32.29888672 11.14900391 32.29888672 10.10546875 32.29296875 C5.65632252 32.30144331 1.43729445 32.70750362 -2.953125 33.4296875 C-1.73253676 18.05027574 -1.73253676 18.05027574 3.234375 13.3671875 C3.8325 13.0578125 4.430625 12.7484375 5.046875 12.4296875 C5.9440625 12.9246875 5.9440625 12.9246875 6.859375 13.4296875 C9.10073971 14.63756738 9.10073971 14.63756738 12.046875 14.4296875 C12.376875 13.4396875 12.706875 12.4496875 13.046875 11.4296875 C13.706875 11.4296875 14.366875 11.4296875 15.046875 11.4296875 C15.046875 10.4396875 15.046875 9.4496875 15.046875 8.4296875 C14.33402344 8.45289062 13.62117188 8.47609375 12.88671875 8.5 C7.11215765 8.60880734 2.51814819 8.21622569 -2.953125 6.4296875 C-4.273125 6.4296875 -5.593125 6.4296875 -6.953125 6.4296875 C-7.00210938 7.13996094 -7.05109375 7.85023437 -7.1015625 8.58203125 C-7.17632812 9.50113281 -7.25109375 10.42023438 -7.328125 11.3671875 C-7.43253906 12.74197266 -7.43253906 12.74197266 -7.5390625 14.14453125 C-7.67570312 14.89863281 -7.81234375 15.65273437 -7.953125 16.4296875 C-8.613125 16.7596875 -9.273125 17.0896875 -9.953125 17.4296875 C-12.04449322 13.24695106 -11.35461026 7.88121115 -10.140625 3.4921875 C-7.53604032 -1.03156484 -4.72769222 -0.7074284 0 0 Z " fill="#F0F2F3" transform="translate(91.953125,65.5703125)"/>
<path d="M0 0 C2.30352874 0.9214115 4.54668222 1.9191863 6.79003906 2.97851562 C7.5113501 3.3174585 8.23266113 3.65640137 8.97583008 4.00561523 C14.97534092 7.00922233 20.1293445 10.98467033 22.85253906 17.29101562 C23.5751668 24.84576015 23.5751668 24.84576015 21.85253906 28.29101562 C21.19253906 28.29101562 20.53253906 28.29101562 19.85253906 28.29101562 C19.19253906 26.97101563 18.53253906 25.65101563 17.85253906 24.29101562 C17.19253906 25.28101563 16.53253906 26.27101562 15.85253906 27.29101562 C14.86253906 25.97101563 13.87253906 24.65101563 12.85253906 23.29101562 C13.34753906 25.76601562 13.34753906 25.76601562 13.85253906 28.29101562 C11.82796527 26.35846791 10.43148114 24.65942875 8.85253906 22.29101562 C6.62017791 21.37251736 6.62017791 21.37251736 3.97753906 20.79101562 C2.99785156 20.54222656 2.01816406 20.2934375 1.00878906 20.03710938 C-1.11282612 19.53558895 -3.23797872 19.04882539 -5.36621094 18.57617188 C-15.94705182 16.15357836 -15.94705182 16.15357836 -19.14746094 12.29101562 C-20.20996094 9.41601562 -20.20996094 9.41601562 -20.14746094 6.29101562 C-15.65370877 -1.92170385 -8.81205381 -2.90930017 0 0 Z " fill="#F7F8F8" transform="translate(79.1474609375,104.708984375)"/>
<path d="M0 0 C0.66 0 1.32 0 2 0 C2.515625 0.53625 3.03125 1.0725 3.5625 1.625 C5.76334655 3.76941458 7.72554546 5.13975279 10.3125 6.75 C22.01516444 14.42387832 28.48476754 26.39057173 31.30078125 39.84765625 C33.68424068 52.9368464 32.09088205 64.61815026 25.1328125 76.07421875 C14.81739608 90.78472505 14.81739608 90.78472505 8 92 C8 92.66 8 93.32 8 94 C-1.38069264 98.79591682 -9.6014737 100.86434791 -20.06640625 101.67578125 C-23.14509846 101.92953642 -25.99929274 102.30478664 -29 103 C-25 99 -25 99 -22.875 97.25 C-20.40003738 94.28004485 -20.58441532 92.55844755 -20.75 88.75 C-20.78609375 87.67234375 -20.8221875 86.5946875 -20.859375 85.484375 C-20.92898437 84.25460938 -20.92898437 84.25460938 -21 83 C-18 84 -18 84 -17 86 C-16.62218045 93.80827068 -16.62218045 93.80827068 -19 98 C-5.1059298 97.69371789 6.1005699 92.81947635 15.9296875 83.08984375 C23.01901898 75.43762544 27.36721929 67.24182365 28.28125 56.78125 C27.92847068 52.03832798 26.34394243 48.80031951 24.1875 44.625 C21.90380725 40.06400039 19.76812715 35.79632491 18.5625 30.8125 C17.48379596 27.06203894 15.8455342 26.04210387 12.5 24.125 C9.56059418 22.42298921 8.25188276 21.59959047 6.921875 18.43359375 C6.47571543 16.52703978 6.06257371 14.61244259 5.68359375 12.69140625 C4.66796745 8.69274043 2.49726561 6.23969593 0 3 C0 2.01 0 1.02 0 0 Z " fill="#DBDFE1" transform="translate(120,53)"/>
<path d="M0 0 C5.63473568 2.56590878 8.74197361 6.23711924 11.14453125 11.9765625 C10.48453125 12.6365625 9.82453125 13.2965625 9.14453125 13.9765625 C8.84160156 13.43386719 8.53867188 12.89117187 8.2265625 12.33203125 C4.80790082 6.48627559 4.80790082 6.48627559 -0.85546875 2.9765625 C-4.55070827 2.25733042 -4.55070827 2.25733042 -7.85546875 1.9765625 C-7.85546875 1.3165625 -7.85546875 0.6565625 -7.85546875 -0.0234375 C-8.51546875 -0.0234375 -9.17546875 -0.0234375 -9.85546875 -0.0234375 C-9.85546875 0.6365625 -9.85546875 1.2965625 -9.85546875 1.9765625 C-10.84546875 1.6465625 -11.83546875 1.3165625 -12.85546875 0.9765625 C-19.97512164 4.90970408 -25.00350691 10.79439124 -27.7265625 18.4140625 C-28.59836026 20.83184829 -29.37964558 22.86824368 -30.85546875 24.9765625 C-33.10091124 25.91325781 -35.14170346 26.22289657 -37.546875 26.55859375 C-41.50283417 27.27481648 -44.198281 28.98310534 -46.85546875 31.9765625 C-48.83428238 35.53341737 -50.41055933 39.17451973 -51.85546875 42.9765625 C-52.84546875 42.6465625 -53.83546875 42.3165625 -54.85546875 41.9765625 C-54.10474102 32.34818143 -47.64701088 26.36273232 -40.79296875 20.0390625 C-38.23015825 17.87287743 -35.87826382 16.45751312 -32.79296875 15.1640625 C-28.16753948 13.0902833 -26.32800795 9.53544668 -23.63671875 5.39453125 C-17.39765092 -3.07472969 -9.34890762 -3.40829 0 0 Z " fill="#E6EAED" transform="translate(109.85546875,41.0234375)"/>
<path d="M0 0 C1.32 0.66 2.64 1.32 4 2 C2.02 2.99 2.02 2.99 0 4 C0.33 4.66 0.66 5.32 1 6 C0.01 6 -0.98 6 -2 6 C-2 7.32 -2 8.64 -2 10 C3.71577709 11.00276791 7.58175752 11.21152754 13 9 C13.33 8.01 13.66 7.02 14 6 C14.66 6 15.32 6 16 6 C16 7.32 16 8.64 16 10 C16.66 10 17.32 10 18 10 C20.32590854 13.63423209 20.16265833 16.77088331 20 21 C19.33742188 20.83757812 18.67484375 20.67515625 17.9921875 20.5078125 C14.35552326 19.89062405 10.80051278 19.85438965 7.125 19.875 C6.10212891 19.86919922 6.10212891 19.86919922 5.05859375 19.86328125 C0.60944752 19.87175581 -3.60958055 20.27781612 -8 21 C-6.77941176 5.62058824 -6.77941176 5.62058824 -1.8125 0.9375 C-1.214375 0.628125 -0.61625 0.31875 0 0 Z " fill="#EFF0F1" transform="translate(97,78)"/>
<path d="M0 0 C2.475 0.99 2.475 0.99 5 2 C5 2.66 5 3.32 5 4 C5.88365234 4.37318359 5.88365234 4.37318359 6.78515625 4.75390625 C14.13762043 8.89047781 18.26022075 18.39069121 21 26 C22.37908102 31.0494477 23.10177409 35.76326038 23 41 C19.15314837 36.38377805 16.59099891 31.14237105 15 25.375 C13.19799186 19.29322253 10.0103604 15.7256526 5 12 C2.20857253 9.66459781 1.48239605 7.86810211 0.8125 4.3125 C0.65394531 3.50425781 0.49539062 2.69601563 0.33203125 1.86328125 C0.22246094 1.24839844 0.11289063 0.63351563 0 0 Z " fill="#7A7C7B" transform="translate(127,61)"/>
<path d="M0 0 C0.66 0.99 1.32 1.98 2 3 C0.28133968 4.9684831 -1.44884125 6.9243097 -3.1875 8.875 C-3.67025391 9.43058594 -4.15300781 9.98617187 -4.65039062 10.55859375 C-7.52249465 13.75838749 -9.74502322 15.77095735 -14 17 C-14 17.66 -14 18.32 -14 19 C-23.38069264 23.79591682 -31.6014737 25.86434791 -42.06640625 26.67578125 C-45.14509846 26.92953642 -47.99929274 27.30478664 -51 28 C-47 24 -47 24 -44.875 22.25 C-42.40003738 19.28004485 -42.58441532 17.55844755 -42.75 13.75 C-42.78609375 12.67234375 -42.8221875 11.5946875 -42.859375 10.484375 C-42.90578125 9.66453125 -42.9521875 8.8446875 -43 8 C-40 9 -40 9 -39 11 C-38.62218045 18.80827068 -38.62218045 18.80827068 -41 23 C-27.12481329 22.69413416 -15.54450674 17.85767494 -5.9296875 7.84375 C-2.59800822 4.17784357 -2.59800822 4.17784357 0 0 Z " fill="#DEE3E6" transform="translate(142,128)"/>
<path d="M0 0 C3.90532683 0.37793485 7.2815754 0.76052513 11 2 C12.89212737 2.22179785 14.78884472 2.40614015 16.6875 2.5625 C17.68136719 2.64628906 18.67523438 2.73007813 19.69921875 2.81640625 C20.83810547 2.90728516 20.83810547 2.90728516 22 3 C21.2578125 7.7734375 21.2578125 7.7734375 18.9375 9.8125 C18.298125 10.204375 17.65875 10.59625 17 11 C16.60554688 10.49339844 16.21109375 9.98679687 15.8046875 9.46484375 C14.08915773 7.75726907 14.08915773 7.75726907 11.6953125 8.00390625 C6.52536171 9.12746698 2.86358735 10.13641265 -1 14 C-1.66 13.34 -2.32 12.68 -3 12 C-2.67 11.67 -2.34 11.34 -2 11 C-1.79224439 9.33795513 -1.63281745 7.66970509 -1.5 6 C-1.11111111 1.11111111 -1.11111111 1.11111111 0 0 Z " fill="#21262A" transform="translate(85,71)"/>
<path d="M0 0 C2.31 0.33 4.62 0.66 7 1 C6.67 2.32 6.34 3.64 6 5 C5.01 5 4.02 5 3 5 C3.99 6.98 4.98 8.96 6 11 C5.34 11 4.68 11 4 11 C3.67 12.32 3.34 13.64 3 15 C-6.01531729 17.27571116 -6.01531729 17.27571116 -10.125 16.125 C-10.74375 15.75375 -11.3625 15.3825 -12 15 C-12 13.02 -12 11.04 -12 9 C-9.64561267 7.57055055 -8.51967567 6.91338739 -5.75 7.375 C-5.1725 7.58125 -4.595 7.7875 -4 8 C-3.34 6.68 -2.68 5.36 -2 4 C-1.34 4 -0.68 4 0 4 C0 2.68 0 1.36 0 0 Z " fill="#E5E9EA" transform="translate(107,73)"/>
<path d="M0 0 C-1.6445189 4.34622852 -3.66308261 8.47878039 -5.75 12.625 C-6.10126953 13.32560547 -6.45253906 14.02621094 -6.81445312 14.74804688 C-9.74901907 20.56924575 -12.81759404 26.31024389 -16 32 C-17.32 31.67 -18.64 31.34 -20 31 C-19.62311658 26.10051556 -17.96263322 22.78270433 -15.5234375 18.64453125 C-14.38814203 16.67377476 -13.32029541 14.66386838 -12.2890625 12.63671875 C-11.69867188 11.47785156 -11.10828125 10.31898437 -10.5 9.125 C-9.68015625 7.48917969 -9.68015625 7.48917969 -8.84375 5.8203125 C-6.63522809 2.44202263 -4.2269479 0 0 0 Z " fill="#ECF0F1" transform="translate(73,70)"/>
<path d="M0 0 C0.66 0.33 1.32 0.66 2 1 C2.85964149 4.36041673 3.05846964 6.70765179 2.375 10.125 C2.25125 11.07375 2.1275 12.0225 2 13 C2.495 13.598125 2.99 14.19625 3.5 14.8125 C5.91764213 18.33822811 4.71810094 21.9509489 4 26 C3.34 25.67 2.68 25.34 2 25 C1.360625 24.731875 0.72125 24.46375 0.0625 24.1875 C-2.45875496 22.73586836 -3.48670929 21.4882399 -5 19 C-5.90356119 12.63963788 -5.78944603 6.39267319 -2 1 C-1.34 0.67 -0.68 0.34 0 0 Z " fill="#22292E" transform="translate(58,102)"/>
<path d="M0 0 C0.13277344 0.67546875 0.26554687 1.3509375 0.40234375 2.046875 C0.57894531 2.93890625 0.75554687 3.8309375 0.9375 4.75 C1.11152344 5.63171875 1.28554687 6.5134375 1.46484375 7.421875 C1.92368488 9.63235053 2.43336074 11.81512068 3 14 C2.38125 14.2475 1.7625 14.495 1.125 14.75 C-1.35068687 16.20628639 -1.95125002 17.37812506 -3 20 C-3.66 20 -4.32 20 -5 20 C-5 19.34 -5 18.68 -5 18 C-5.66 18 -6.32 18 -7 18 C-7.309375 16.906875 -7.61875 15.81375 -7.9375 14.6875 C-8.58337897 12.44592006 -9.2623117 10.2130649 -10 8 C-9.01 7.67 -8.02 7.34 -7 7 C-6.67 6.01 -6.34 5.02 -6 4 C-7.98 4.33 -9.96 4.66 -12 5 C-8.71329597 1.71329597 -4.64131669 0 0 0 Z " fill="#21252B" transform="translate(120,70)"/>
<path d="M0 0 C0.66 0 1.32 0 2 0 C2.515625 0.53625 3.03125 1.0725 3.5625 1.625 C5.76334655 3.76941458 7.72554546 5.13975279 10.3125 6.75 C16.36629474 10.68945457 22.02811115 16.31325009 25 23 C24.5625 25.140625 24.5625 25.140625 24 27 C23.54560547 26.23816406 23.54560547 26.23816406 23.08203125 25.4609375 C18.65039461 17.64359878 18.65039461 17.64359878 12 12 C12 11.34 12 10.68 12 10 C10.68 9.67 9.36 9.34 8 9 C8.42256649 12.41837368 8.9386676 15.71701843 10 19 C12.26601865 20.29042763 12.26601865 20.29042763 15 21 C18.48553452 24.09173614 20.71937289 26.89753635 21.875 31.4375 C21.91625 32.283125 21.9575 33.12875 22 34 C19.93185344 32.1386681 18.69383689 30.48608336 17.25 28.0625 C15.18340472 24.74167534 15.18340472 24.74167534 11.4375 23.3125 C8.82280819 21.99127569 8.13036245 21.3386178 7.05859375 18.5546875 C6.59954295 16.62929728 6.16493106 14.69792994 5.75390625 12.76171875 C4.65908553 8.75115787 2.5187378 6.26755174 0 3 C0 2.01 0 1.02 0 0 Z " fill="#E1E3E5" transform="translate(120,53)"/>
<path d="M0 0 C0.66 0 1.32 0 2 0 C2 1.32 2 2.64 2 4 C2.66 4 3.32 4 4 4 C6.57877584 8.02933725 6 9.51534435 6 15 C0.72 14.01 -4.56 13.02 -10 12 C-10 11.34 -10 10.68 -10 10 C-10.99 9.34 -11.98 8.68 -13 8 C-12.34 8 -11.68 8 -11 8 C-11 7.34 -11 6.68 -11 6 C-10.28972656 5.81824219 -9.57945313 5.63648437 -8.84765625 5.44921875 C-7.92855469 5.19785156 -7.00945312 4.94648437 -6.0625 4.6875 C-5.14597656 4.44386719 -4.22945312 4.20023437 -3.28515625 3.94921875 C-2.53105469 3.63597656 -1.77695313 3.32273437 -1 3 C-0.67 2.01 -0.34 1.02 0 0 Z " fill="#F1F3F6" transform="translate(111,84)"/>
<path d="M0 0 C0 0.66 0 1.32 0 2 C-1.0725 2.5775 -2.145 3.155 -3.25 3.75 C-9.12159733 7.16920327 -11.60132339 10.8652671 -14.49609375 16.91796875 C-16.34372576 20.70441461 -18.320674 24.41292075 -20.3125 28.125 C-20.6744043 28.80087158 -21.03630859 29.47674316 -21.40917969 30.1730957 C-22.27165242 31.78267198 -23.13565953 33.39142593 -24 35 C-24.33 35 -24.66 35 -25 35 C-24.64183855 29.50819117 -23.03230561 25.58877542 -20.44140625 20.75390625 C-18.94558481 17.97622053 -18.94558481 17.97622053 -17.65234375 14.90234375 C-14.06563436 6.83974075 -9.56538821 0 0 0 Z " fill="#2A2E2F" transform="translate(76,66)"/>
<path d="M0 0 C5.69521043 2.07627774 9.26375728 4.73888786 12.3125 10.125 C12.68375 11.011875 13.055 11.89875 13.4375 12.8125 C12.7775 13.4725 12.1175 14.1325 11.4375 14.8125 C11.13457031 14.26980469 10.83164063 13.72710937 10.51953125 13.16796875 C7.10086957 7.32221309 7.10086957 7.32221309 1.4375 3.8125 C-2.25773952 3.09326792 -2.25773952 3.09326792 -5.5625 2.8125 C-5.5625 2.1525 -5.5625 1.4925 -5.5625 0.8125 C-6.2225 0.8125 -6.8825 0.8125 -7.5625 0.8125 C-7.5625 1.4725 -7.5625 2.1325 -7.5625 2.8125 C-8.5525 2.4825 -9.5425 2.1525 -10.5625 1.8125 C-13.25683317 3.68447454 -13.25683317 3.68447454 -15.5625 5.8125 C-16.8825 5.1525 -18.2025 4.4925 -19.5625 3.8125 C-12.79849709 -1.10677484 -8.21831671 -2.37753978 0 0 Z " fill="#DADFE3" transform="translate(107.5625,40.1875)"/>
<path d="M0 0 C0.33 0.66 0.66 1.32 1 2 C0.67 2.66 0.34 3.32 0 4 C0.66 4 1.32 4 2 4 C-0.05764921 10.45353615 -2.42383482 16.7361263 -5 23 C-4.34 23 -3.68 23 -3 23 C-3.375 25.9375 -3.375 25.9375 -4 29 C-4.66 29.33 -5.32 29.66 -6 30 C-6.49988286 19.96068583 -6.01314812 11.4177162 -2 2 C-1.34 1.34 -0.68 0.68 0 0 Z " fill="#E2E5E9" transform="translate(55,79)"/>
<path d="M0 0 C0.66 0 1.32 0 2 0 C2.84182533 1.28090689 3.62191626 2.60248792 4.375 3.9375 C7.7639005 9.26892163 12.14384088 12.40121842 17.29296875 15.95703125 C19.78606827 17.83854791 21.48277799 19.28003472 23 22 C22.67 22.99 22.34 23.98 22 25 C21.46117188 24.26394531 20.92234375 23.52789062 20.3671875 22.76953125 C17.84843295 19.82267155 15.30076969 17.89760944 12.125 15.6875 C7.20700644 12.08618198 2.83522177 8.49635098 0 3 C0 2.01 0 1.02 0 0 Z " fill="#DEE3E6" transform="translate(57,128)"/>
<path d="M0 0 C0.33 0.99 0.66 1.98 1 3 C3.16666667 2.16666667 3.16666667 2.16666667 4 0 C6.5 1.3125 6.5 1.3125 9 3 C9 3.99 9 4.98 9 6 C11.97 6.495 11.97 6.495 15 7 C15 7.33 15 7.66 15 8 C14.09507813 8.07347656 14.09507813 8.07347656 13.171875 8.1484375 C12.37265625 8.22320312 11.5734375 8.29796875 10.75 8.375 C9.96109375 8.44460937 9.1721875 8.51421875 8.359375 8.5859375 C5.914123 9.01507113 4.15163097 9.78600638 2 11 C1.34 9.68 0.68 8.36 0 7 C-0.99 7 -1.98 7 -3 7 C-2.01 4.69 -1.02 2.38 0 0 Z " fill="#30363B" transform="translate(59,96)"/>
<path d="M0 0 C0.99 0.495 0.99 0.495 2 1 C2.45703125 3.21484375 2.45703125 3.21484375 2.8125 5.9375 C3.2543521 8.64700303 3.2543521 8.64700303 4 11 C6.26601865 12.29042763 6.26601865 12.29042763 9 13 C12.48553452 16.09173614 14.71937289 18.89753635 15.875 23.4375 C15.91625 24.283125 15.9575 25.12875 16 26 C13.93185344 24.1386681 12.69383689 22.48608336 11.25 20.0625 C9.06776037 17.09222939 8.48435404 16.59380535 5.375 15.1875 C2.9830482 13.97359726 2.16890402 13.39755138 1.10546875 10.89453125 C0.25997219 7.16583057 0 3.83770536 0 0 Z " fill="#E4E7E8" transform="translate(126,61)"/>
<path d="M0 0 C-0.4375 2.8125 -0.4375 2.8125 -2 6 C-6.28479117 8.25335631 -11.24577957 9.23319025 -16 10 C-12.32261534 5.05851437 -6.66684024 -2.22228008 0 0 Z " fill="#CDD0D3" transform="translate(80,57)"/>
<path d="M0 0 C0.99 0 1.98 0 3 0 C3.52235753 8.31419062 2.97744732 15.53614823 -1 23 C-3.140625 25.3125 -3.140625 25.3125 -5 27 C-4.38899695 23.08958048 -3.16799899 19.62419744 -1.71875 15.96484375 C-0.31199195 12.11919538 0.11649277 8.85345044 0.0625 4.75 C0.05347656 3.85796875 0.04445312 2.9659375 0.03515625 2.046875 C0.02355469 1.37140625 0.01195312 0.6959375 0 0 Z " fill="#DDE2E7" transform="translate(148,103)"/>
<path d="M0 0 C1.09731445 0.01353516 1.09731445 0.01353516 2.21679688 0.02734375 C3.99884298 0.05063847 5.78071759 0.0864981 7.5625 0.125 C7.5625 0.785 7.5625 1.445 7.5625 2.125 C8.2225 2.455 8.8825 2.785 9.5625 3.125 C7.96921875 3.10759766 7.96921875 3.10759766 6.34375 3.08984375 C-4.08360915 3.0031229 -4.08360915 3.0031229 -14.4375 4.125 C-14.7675 3.465 -15.0975 2.805 -15.4375 2.125 C-10.12218311 0.35089949 -5.58131195 -0.1327668 0 0 Z " fill="#75797D" transform="translate(104.4375,96.875)"/>
<path d="M0 0 C0.99 0.33 1.98 0.66 3 1 C2.34 1 1.68 1 1 1 C0.896875 1.845625 0.79375 2.69125 0.6875 3.5625 C-0.0828854 7.41442701 -1.36274514 10.44075031 -3 14 C-3.99 13.67 -4.98 13.34 -6 13 C-5.63118644 6.85310727 -4.09949571 4.30972626 0 0 Z " fill="#DADFE0" transform="translate(61,70)"/>
<path d="M0 0 C0.33 0 0.66 0 1 0 C2.09644404 5.94457613 2.41029848 9.67993436 -1 15 C-1.66 14.67 -2.32 14.34 -3 14 C-3.37890625 12.0390625 -3.37890625 12.0390625 -3.5625 9.625 C-3.78753088 6.80522535 -4.09554568 4.71336297 -5 2 C-2 3 -2 3 0 4 C0 2.68 0 1.36 0 0 Z " fill="#2B3035" transform="translate(126,65)"/>
<path d="M0 0 C3.625 0.1875 3.625 0.1875 6.625 2.1875 C6.625 3.5075 6.625 4.8275 6.625 6.1875 C-1.25 5.3125 -1.25 5.3125 -2.375 4.1875 C-3.035 4.8475 -3.695 5.5075 -4.375 6.1875 C-4.417721 4.52138095 -4.41563832 2.85367115 -4.375 1.1875 C-3.375 0.1875 -3.375 0.1875 0 0 Z " fill="#5C5F62" transform="translate(89.375,71.8125)"/>
<path d="M0 0 C2.475 0.99 2.475 0.99 5 2 C5 2.66 5 3.32 5 4 C5.9590625 4.433125 5.9590625 4.433125 6.9375 4.875 C9 6 9 6 10 8 C7.66785852 9.20628008 5.50357861 10.1654738 3 11 C2.01 7.37 1.02 3.74 0 0 Z " fill="#858585" transform="translate(127,61)"/>
<path d="M0 0 C2.99324263 1.0975223 3.84610901 1.67682892 5.25 4.625 C5.4975 5.40875 5.745 6.1925 6 7 C5.01 7.33 4.02 7.66 3 8 C2.34 7.34 1.68 6.68 1 6 C-0.98 6.99 -0.98 6.99 -3 8 C-3.66 7.34 -4.32 6.68 -5 6 C-4.34 5.01 -3.68 4.02 -3 3 C-2.67 3.33 -2.34 3.66 -2 4 C-1.34 2.68 -0.68 1.36 0 0 Z " fill="#646870" transform="translate(81,148)"/>
<path d="M0 0 C-0.33 1.65 -0.66 3.3 -1 5 C-3.31 5 -5.62 5 -8 5 C-8 4.34 -8 3.68 -8 3 C-8.99 2.34 -9.98 1.68 -11 1 C-10.34 1 -9.68 1 -9 1 C-9 0.34 -9 -0.32 -9 -1 C-5.23375329 -2.25541557 -3.62811066 -1.37061958 0 0 Z " fill="#FCFCFC" transform="translate(109,91)"/>
<path d="M0 0 C2.49505962 2.49505962 2.35948376 3.67328888 2.625 7.125 C2.69976562 8.03507813 2.77453125 8.94515625 2.8515625 9.8828125 C2.90054688 10.58148438 2.94953125 11.28015625 3 12 C0 11 0 11 -1 10 C-1.66 10.66 -2.32 11.32 -3 12 C-3.66 11.34 -4.32 10.68 -5 10 C-3.35 6.7 -1.7 3.4 0 0 Z " fill="#262D33" transform="translate(148,121)"/>
<path d="M0 0 C1 3 1 3 0.22265625 4.82421875 C-0.8515625 6.54947917 -1.92578125 8.27473958 -3 10 C-4.32 9.67 -5.64 9.34 -7 9 C-6.875 6.1875 -6.875 6.1875 -6 3 C-2.9375 1.125 -2.9375 1.125 0 0 Z " fill="#F0F1F2" transform="translate(60,92)"/>
<path d="M0 0 C3.1875 0.4375 3.1875 0.4375 6.0625 2.25 C9.14662731 6.87619096 8.61343929 11.03280363 8.1875 16.4375 C7.5275 16.1075 6.8675 15.7775 6.1875 15.4375 C5.5546875 12.49609375 5.5546875 12.49609375 5.0625 8.875 C4.89492187 7.67746094 4.72734375 6.47992188 4.5546875 5.24609375 C4.43351562 4.31925781 4.31234375 3.39242187 4.1875 2.4375 C1.2175 2.4375 -1.7525 2.4375 -4.8125 2.4375 C-2.8125 0.4375 -2.8125 0.4375 0 0 Z " fill="#DDE2E5" transform="translate(114.8125,64.5625)"/>
<path d="M0 0 C0 0.66 0 1.32 0 2 C-0.99 2.556875 -1.98 3.11375 -3 3.6875 C-7.07245407 6.01104741 -11.04024027 8.49043799 -15 11 C-13.6846126 6.84875051 -12.27763216 5.03562068 -8.625 2.6875 C-7.85414062 2.17574219 -7.08328125 1.66398437 -6.2890625 1.13671875 C-4 0 -4 0 0 0 Z " fill="#353A3C" transform="translate(76,66)"/>
<path d="M0 0 C0.33 0 0.66 0 1 0 C1.4803318 1.58298026 1.95921612 3.16639978 2.4375 4.75 C2.83775391 6.07257813 2.83775391 6.07257813 3.24609375 7.421875 C3.88468494 9.60565835 4.46775833 11.78835498 5 14 C1 14 1 14 -0.80078125 12.328125 C-2.33937549 9.34114726 -1.99264267 7.97057068 -1.1875 4.75 C-0.97480469 3.85796875 -0.76210937 2.9659375 -0.54296875 2.046875 C-0.36378906 1.37140625 -0.18460938 0.6959375 0 0 Z " fill="#2F3337" transform="translate(139,84)"/>
<path d="M0 0 C2.0625 0.4375 2.0625 0.4375 4 1 C3.01 1.33 2.02 1.66 1 2 C1.33 3.65 1.66 5.3 2 7 C2.99 7.33 3.98 7.66 5 8 C3.35 9.98 1.7 11.96 0 14 C-0.99 13.34 -1.98 12.68 -3 12 C-2.67 11.67 -2.34 11.34 -2 11 C-1.79224439 9.33795513 -1.63281745 7.66970509 -1.5 6 C-1.11111111 1.11111111 -1.11111111 1.11111111 0 0 Z " fill="#383E44" transform="translate(85,71)"/>
<path d="M0 0 C2.9375 0.8125 2.9375 0.8125 6 2 C6.33 2.99 6.66 3.98 7 5 C8.89179203 5.6814823 8.89179203 5.6814823 11 6 C11.99 6.33 12.98 6.66 14 7 C13.67 8.65 13.34 10.3 13 12 C12.56429687 11.62488281 12.12859375 11.24976563 11.6796875 10.86328125 C11.08414063 10.35152344 10.48859375 9.83976563 9.875 9.3125 C8.92560547 8.49652344 8.92560547 8.49652344 7.95703125 7.6640625 C6.17588663 6.14955629 4.37365561 4.66581794 2.5625 3.1875 C1.716875 2.465625 0.87125 1.74375 0 1 C0 0.67 0 0.34 0 0 Z " fill="#2C3135" transform="translate(67,138)"/>
<path d="M0 0 C0.66 0.33 1.32 0.66 2 1 C1.2884375 1.6496875 1.2884375 1.6496875 0.5625 2.3125 C-1.23686957 4.02309613 -1.23686957 4.02309613 -2 7 C-2.33 7.99 -2.66 8.98 -3 10 C-2.01 11.485 -2.01 11.485 -1 13 C-1.99 13.33 -2.98 13.66 -4 14 C-6 11 -6 11 -5.9375 8.125 C-4.78723197 4.29077324 -2.98138921 2.59915982 0 0 Z " fill="#E2E5E8" transform="translate(65,104)"/>
<path d="M0 0 C0.33 0 0.66 0 1 0 C1.144375 1.2375 1.28875 2.475 1.4375 3.75 C1.78688502 6.56504499 2.20379366 9.2701497 3 12 C2.01 12.33 1.02 12.66 0 13 C-0.12375 12.071875 -0.12375 12.071875 -0.25 11.125 C-0.81258459 8.81562433 -0.81258459 8.81562433 -3.0625 7.75 C-3.701875 7.5025 -4.34125 7.255 -5 7 C-4.34 6.67 -3.68 6.34 -3 6 C-2.67 5.34 -2.34 4.68 -2 4 C-1.34 4.33 -0.68 4.66 0 5 C0 3.35 0 1.7 0 0 Z " fill="#363B43" transform="translate(120,72)"/>
<path d="M0 0 C1.32 0.66 2.64 1.32 4 2 C2.02 2.99 2.02 2.99 0 4 C0.33 4.66 0.66 5.32 1 6 C0.01 6 -0.98 6 -2 6 C-2.33 6.99 -2.66 7.98 -3 9 C-4.5625 10.6875 -4.5625 10.6875 -6 12 C-4.66958425 3.64989059 -4.66958425 3.64989059 -1.875 0.9375 C-0.946875 0.4734375 -0.946875 0.4734375 0 0 Z " fill="#D1D7D9" transform="translate(97,78)"/>
<path d="M0 0 C1.32 0.99 2.64 1.98 4 3 C3.1875 6.4375 3.1875 6.4375 2 10 C1.01 10.33 0.02 10.66 -1 11 C-1.66 11.66 -2.32 12.32 -3 13 C-2.21302675 9.58978257 -1.12880057 6.31114834 0 3 C-0.66 3 -1.32 3 -2 3 C-1 1 -1 1 0 0 Z " fill="#C3C5C7" transform="translate(52,99)"/>
<path d="M0 0 C1.1796875 1.609375 1.1796875 1.609375 2 4 C0.8828125 7.015625 0.8828125 7.015625 -0.875 10.25 C-1.44992188 11.32765625 -2.02484375 12.4053125 -2.6171875 13.515625 C-3.07351562 14.33546875 -3.52984375 15.1553125 -4 16 C-4.33 16 -4.66 16 -5 16 C-4.49228528 10.03435204 -2.61407872 5.36190101 0 0 Z " fill="#373A3E" transform="translate(56,85)"/>
<path d="M0 0 C0.66 0 1.32 0 2 0 C2 3.63 2 7.26 2 11 C1.01 11.495 1.01 11.495 0 12 C-1.1898306 9.6203388 -1.13349966 8.08514265 -1.125 5.4375 C-1.12886719 4.22900391 -1.12886719 4.22900391 -1.1328125 2.99609375 C-1 1 -1 1 0 0 Z " fill="#EFF4F5" transform="translate(82,71)"/>
<path d="M0 0 C3.0074041 0.32222187 4.00776762 1.00776762 6.1875 3.1875 C8.14856712 6.23053519 8.66761076 8.42681564 9 12 C6.88615293 10.09753764 5.52490385 8.28015735 3.9375 5.875 C2.30854547 2.94935958 2.30854547 2.94935958 0 2 C0 1.34 0 0.68 0 0 Z " fill="#F0F3F4" transform="translate(133,75)"/>
<path d="M0 0 C2.31 0.33 4.62 0.66 7 1 C6.67 2.32 6.34 3.64 6 5 C3.69 5.33 1.38 5.66 -1 6 C-1.33 5.34 -1.66 4.68 -2 4 C-1.34 4 -0.68 4 0 4 C0 2.68 0 1.36 0 0 Z " fill="#818589" transform="translate(107,73)"/>
<path d="M0 0 C-0.6875 2.375 -0.6875 2.375 -2 5 C-4.4375 6.125 -4.4375 6.125 -7 7 C-8.77277259 8.52007842 -8.77277259 8.52007842 -10 10 C-9.06742166 5.89665529 -8.35870974 4.28397854 -5 1.625 C-2 0 -2 0 0 0 Z " fill="#DDE1E2" transform="translate(73,70)"/>
<path d="M0 0 C3.73884332 2.65654657 5.64978174 4.58110387 7 9 C6.01 9.66 5.02 10.32 4 11 C2.9375 8.625 2.9375 8.625 2 6 C2.33 5.34 2.66 4.68 3 4 C2.01 4 1.02 4 0 4 C0 2.68 0 1.36 0 0 Z " fill="#2B3338" transform="translate(112,45)"/>
<path d="M0 0 C-0.66 0 -1.32 0 -2 0 C-2.2165625 0.928125 -2.2165625 0.928125 -2.4375 1.875 C-3 4 -3 4 -4 6 C-4.66 6 -5.32 6 -6 6 C-6 5.01 -6 4.02 -6 3 C-7.98 3.33 -9.96 3.66 -12 4 C-8.59914501 0.59914501 -4.67235329 -1.5574511 0 0 Z " fill="#34383D" transform="translate(120,71)"/>
<path d="M0 0 C-0.33 1.65 -0.66 3.3 -1 5 C-1.99 5 -2.98 5 -4 5 C-4.33 6.32 -4.66 7.64 -5 9 C-6 8 -6 8 -6.0625 4.4375 C-6.041875 3.303125 -6.02125 2.16875 -6 1 C-3 0 -3 0 0 0 Z " fill="#182129" transform="translate(59,110)"/>
<path d="M0 0 C0 0.66 0 1.32 0 2 C-1.76913824 2.22226864 -3.54044371 2.42733873 -5.3125 2.625 C-6.29863281 2.74101562 -7.28476563 2.85703125 -8.30078125 2.9765625 C-11 3 -11 3 -14 1 C-12.04310963 0.63794536 -10.08442332 0.28558579 -8.125 -0.0625 C-7.03445312 -0.25972656 -5.94390625 -0.45695313 -4.8203125 -0.66015625 C-2 -1 -2 -1 0 0 Z " fill="#CED3D5" transform="translate(114,151)"/>
<path d="M0 0 C2.375 0.25 2.375 0.25 5 1 C6.3125 3.0625 6.3125 3.0625 7 5 C4.69 4.67 2.38 4.34 0 4 C0 2.68 0 1.36 0 0 Z " fill="#323538" transform="translate(95,84)"/>
<path d="M0 0 C1.65 0.33 3.3 0.66 5 1 C4.67 1.99 4.34 2.98 4 4 C2.02 4.33 0.04 4.66 -2 5 C-1.34 3.35 -0.68 1.7 0 0 Z " fill="#303236" transform="translate(106,84)"/>
<path d="M0 0 C1.28282164 3.84846491 0.48702089 5.28244777 -1 9 C-2.5 11.875 -2.5 11.875 -4 14 C-4.66 14 -5.32 14 -6 14 C-4.50829734 9.0276578 -2.39542583 4.58154261 0 0 Z " fill="#3A3F42" transform="translate(71,73)"/>
<path d="M0 0 C1 3 1 3 0.375 5.125 C-1 7 -1 7 -3.625 7.75 C-4.800625 7.87375 -4.800625 7.87375 -6 8 C-6 7.01 -6 6.02 -6 5 C-5.34 5 -4.68 5 -4 5 C-3.67 4.01 -3.34 3.02 -3 2 C-2.01 1.34 -1.02 0.68 0 0 Z " fill="#272C30" transform="translate(56,73)"/>
<path d="M0 0 C3 1 3 1 4 3 C4.13415472 5.6723621 4.04318541 8.32250488 4 11 C3.01 10.67 2.02 10.34 1 10 C0.67 6.7 0.34 3.4 0 0 Z " fill="#C6CBD0" transform="translate(99,136)"/>
<path d="M0 0 C0.33 0 0.66 0 1 0 C0.67 2.31 0.34 4.62 0 7 C0.66 7 1.32 7 2 7 C1.625 9.9375 1.625 9.9375 1 13 C0.01 13.495 0.01 13.495 -1 14 C-1.02705729 12.22925083 -1.04642195 10.45838289 -1.0625 8.6875 C-1.07410156 7.70136719 -1.08570313 6.71523437 -1.09765625 5.69921875 C-1 3 -1 3 0 0 Z " fill="#F3F4F5" transform="translate(50,95)"/>
<path d="M0 0 C3.35722493 3.66242719 4.16228789 7.20219426 5 12 C4.01 13.485 4.01 13.485 3 15 C2.491217 13.44033782 1.99336531 11.87710759 1.5 10.3125 C1.2215625 9.44238281 0.943125 8.57226562 0.65625 7.67578125 C0.00149195 5.00608323 -0.11831495 2.73603316 0 0 Z " fill="#D4D8DA" transform="translate(145,77)"/>
<path d="M0 0 C-0.33 1.65 -0.66 3.3 -1 5 C-3.64 5.33 -6.28 5.66 -9 6 C-3.15384615 0 -3.15384615 0 0 0 Z " fill="#828383" transform="translate(79,58)"/>
<path d="M0 0 C0.66 0.99 1.32 1.98 2 3 C-0.31 4.65 -2.62 6.3 -5 8 C-5.33 6.68 -5.66 5.36 -6 4 C-5.34 3.67 -4.68 3.34 -4 3 C-3.34 3.33 -2.68 3.66 -2 4 C-2 3.34 -2 2.68 -2 2 C-1.34 2 -0.68 2 0 2 C0 1.34 0 0.68 0 0 Z " fill="#2A3034" transform="translate(131,137)"/>
<path d="M0 0 C3 1 3 1 4 3 C4.66 2.34 5.32 1.68 6 1 C6.33 1.66 6.66 2.32 7 3 C6.67 3.99 6.34 4.98 6 6 C4.02 6.33 2.04 6.66 0 7 C0.2784375 6.1028125 0.2784375 6.1028125 0.5625 5.1875 C1.22093687 2.83591238 1.22093687 2.83591238 0 0 Z " fill="#545A61" transform="translate(91,127)"/>
<path d="M0 0 C0.33 1.32 0.66 2.64 1 4 C-1.64 4.99 -4.28 5.98 -7 7 C-7.66 6.34 -8.32 5.68 -9 5 C-6.35261084 3.5393715 -5.10551666 3 -2 3 C-2 2.34 -2 1.68 -2 1 C-1.34 0.67 -0.68 0.34 0 0 Z " fill="#343A41" transform="translate(130,144)"/>
<path d="M0 0 C1.32 1.65 2.64 3.3 4 5 C2.68 6.32 1.36 7.64 0 9 C-2 6 -2 6 -2 3 C-1.34 3 -0.68 3 0 3 C0 2.01 0 1.02 0 0 Z " fill="#2A2F34" transform="translate(59,134)"/>
<path d="M0 0 C0.99 0 1.98 0 3 0 C3 3.3 3 6.6 3 10 C2.34 10 1.68 10 1 10 C0.67 6.7 0.34 3.4 0 0 Z " fill="#F0F4F7" transform="translate(148,103)"/>
<path d="M0 0 C2.475 0.495 2.475 0.495 5 1 C4.835 1.886875 4.67 2.77375 4.5 3.6875 C4.07004243 6.53596892 3.91558965 9.13004802 4 12 C1.78600697 8.20458337 0.99019802 4.24370579 0 0 Z " fill="#353C41" transform="translate(147,80)"/>
<path d="M0 0 C0.66 0 1.32 0 2 0 C3.7143618 1.95927063 5.38405168 3.95880212 7 6 C6.01 6.66 5.02 7.32 4 8 C0 3.375 0 3.375 0 0 Z " fill="#E6EAEC" transform="translate(120,53)"/>
<path d="M0 0 C1.4540625 0.0309375 1.4540625 0.0309375 2.9375 0.0625 C2.9375 0.7225 2.9375 1.3825 2.9375 2.0625 C-1.5175 3.5475 -1.5175 3.5475 -6.0625 5.0625 C-3.56765464 0.07280928 -3.56765464 0.07280928 0 0 Z " fill="#ECF1F3" transform="translate(73.0625,63.9375)"/>
<path d="M0 0 C2.64 1.65 5.28 3.3 8 5 C7.01 5.66 6.02 6.32 5 7 C5 6.34 5 5.68 5 5 C3.02 4.34 1.04 3.68 -1 3 C-1.33 3.66 -1.66 4.32 -2 5 C-2 2 -2 2 0 0 Z " fill="#D8DDDB" transform="translate(127,58)"/>
<path d="M0 0 C0.66 0.33 1.32 0.66 2 1 C2 1.66 2 2.32 2 3 C2.66 3 3.32 3 4 3 C4 3.99 4 4.98 4 6 C3.34 6 2.68 6 2 6 C1.67 6.99 1.34 7.98 1 9 C0.67 8.34 0.34 7.68 0 7 C0.33 6.34 0.66 5.68 1 5 C0.34 4.67 -0.32 4.34 -1 4 C-0.67 2.68 -0.34 1.36 0 0 Z " fill="#393E42" transform="translate(97,130)"/>
<path d="M0 0 C0.66 0 1.32 0 2 0 C2 1.98 2 3.96 2 6 C0.02 6.66 -1.96 7.32 -4 8 C-3.625 6.0625 -3.625 6.0625 -3 4 C-2.34 3.67 -1.68 3.34 -1 3 C-0.67 2.01 -0.34 1.02 0 0 Z " fill="#1C2027" transform="translate(118,71)"/>
<path d="M0 0 C1.32 1.65 2.64 3.3 4 5 C2.68 5.99 1.36 6.98 0 8 C-0.79953138 4.71303767 -1.09658936 3.28976808 0 0 Z " fill="#282D32" transform="translate(58,65)"/>
<path d="M0 0 C0.99 0 1.98 0 3 0 C2.34 1.98 1.68 3.96 1 6 C0.01 6 -0.98 6 -2 6 C-2 5.34 -2 4.68 -2 4 C-2.99 3.67 -3.98 3.34 -5 3 C-3.35 3 -1.7 3 0 3 C0 2.01 0 1.02 0 0 Z " fill="#E1E3E4" transform="translate(78,60)"/>
<path d="M0 0 C0.99 0 1.98 0 3 0 C3.33 2.97 3.66 5.94 4 9 C1.49701566 6.06171403 0.53069061 3.82097239 0 0 Z " fill="#808385" transform="translate(146,93)"/>
<path d="M0 0 C0.66 0 1.32 0 2 0 C2.33 1.98 2.66 3.96 3 6 C1.68 6.33 0.36 6.66 -1 7 C-1.625 5.1875 -1.625 5.1875 -2 3 C-1.34 2.01 -0.68 1.02 0 0 Z " fill="#7B7E7C" transform="translate(146,87)"/>
<path d="M0 0 C-0.66 1.98 -1.32 3.96 -2 6 C-2.66 6 -3.32 6 -4 6 C-4 5.34 -4 4.68 -4 4 C-4.66 4 -5.32 4 -6 4 C-6 3.34 -6 2.68 -6 2 C-3 0 -3 0 0 0 Z " fill="#2E3137" transform="translate(119,84)"/>
<path d="M0 0 C2.97 0 5.94 0 9 0 C8.01 1.485 8.01 1.485 7 3 C4.5 3.375 4.5 3.375 2 3 C1.34 2.01 0.68 1.02 0 0 Z " fill="#2B3034" transform="translate(96,154)"/>
<path d="M0 0 C0.556875 0.226875 1.11375 0.45375 1.6875 0.6875 C-2.74326923 3.76442308 -2.74326923 3.76442308 -5.625 3.375 C-6.4603125 3.0346875 -6.4603125 3.0346875 -7.3125 2.6875 C-2.88173077 -0.38942308 -2.88173077 -0.38942308 0 0 Z " fill="#E0E5EA" transform="translate(120.3125,148.3125)"/>
<path d="M0 0 C0.33 0 0.66 0 1 0 C0.88637738 1.4800841 0.75877092 2.95910074 0.625 4.4375 C0.52058594 5.67306641 0.52058594 5.67306641 0.4140625 6.93359375 C0.27742188 7.61550781 0.14078125 8.29742187 0 9 C-0.99 9.495 -0.99 9.495 -2 10 C-2.25 3.375 -2.25 3.375 0 0 Z " fill="#F5F8FA" transform="translate(52,107)"/>
<path d="M0 0 C2.15377564 2.62198774 3.40072174 4.64404172 4 8 C3.01 8.33 2.02 8.66 1 9 C0.67 6.03 0.34 3.06 0 0 Z " fill="#303437" transform="translate(145,100)"/>
<path d="M0 0 C0.99 0 1.98 0 3 0 C1.70700306 2.88437779 0.34058637 4.87219421 -2 7 C-2.33 5.68 -2.66 4.36 -3 3 C-2.34 3 -1.68 3 -1 3 C-0.67 2.01 -0.34 1.02 0 0 Z " fill="#2D3236" transform="translate(84,45)"/>
<path d="M0 0 C4.75 0.75 4.75 0.75 7 3 C2.545 3.495 2.545 3.495 -2 4 C-2 3.34 -2 2.68 -2 2 C-1.34 2 -0.68 2 0 2 C0 1.34 0 0.68 0 0 Z " fill="#32373D" transform="translate(96,36)"/>
<path d="M0 0 C-2.91765 1.9451 -4.62537285 2.45276317 -8 3 C-8.33 2.01 -8.66 1.02 -9 0 C-5.52176885 -1.15941038 -3.54104422 -0.70820884 0 0 Z " fill="#1D2126" transform="translate(74,123)"/>
<path d="M0 0 C0 0.99 0 1.98 0 3 C-0.99 3.66 -1.98 4.32 -3 5 C-3.99 4.34 -4.98 3.68 -6 3 C-6 2.34 -6 1.68 -6 1 C-4.02 0.67 -2.04 0.34 0 0 Z " fill="#252B30" transform="translate(73,56)"/>
<path d="M0 0 C0.66 0.99 1.32 1.98 2 3 C-2.625 5.125 -2.625 5.125 -6 4 C-4.02 2.68 -2.04 1.36 0 0 Z " fill="#DADFE3" transform="translate(97,151)"/>
<path d="M0 0 C0.66 0 1.32 0 2 0 C2.99 1.98 3.98 3.96 5 6 C4.01 6.33 3.02 6.66 2 7 C0 4 0 4 0 0 Z " fill="#D8DDE0" transform="translate(59,111)"/>
<path d="M0 0 C2.31 0 4.62 0 7 0 C7 0.99 7 1.98 7 3 C4.625 3.1875 4.625 3.1875 2 3 C1.34 2.01 0.68 1.02 0 0 Z " fill="#313336" transform="translate(100,74)"/>
<path d="M0 0 C0.33 0.99 0.66 1.98 1 3 C2.32 3 3.64 3 5 3 C5 3.66 5 4.32 5 5 C3.68 5.33 2.36 5.66 1 6 C-0.0625 4.125 -0.0625 4.125 -1 2 C-0.67 1.34 -0.34 0.68 0 0 Z " fill="#2C2F37" transform="translate(80,62)"/>
<path d="M0 0 C0.33 0.66 0.66 1.32 1 2 C1.99 2.33 2.98 2.66 4 3 C3.01 4.485 3.01 4.485 2 6 C2 5.34 2 4.68 2 4 C0.68 4.33 -0.64 4.66 -2 5 C-1.34 3.35 -0.68 1.7 0 0 Z " fill="#32373D" transform="translate(84,54)"/>
</svg>
